<mxfile host="app.diagrams.net" modified="2022-10-29T13:11:32.893Z" agent="5.0 (Windows NT 10.0; Win64; x64) AppleWebKit/537.36 (KHTML, like Gecko) Chrome/106.0.0.0 Safari/537.36" etag="ZIPgtNeSga-hJ2XMKcZd" version="20.5.1" type="github">
  <diagram id="kgpKYQtTHZ0yAKxKKP6v" name="Page-1">
    <mxGraphModel dx="2433" dy="697" grid="1" gridSize="10" guides="1" tooltips="1" connect="1" arrows="1" fold="1" page="1" pageScale="1" pageWidth="850" pageHeight="1100" math="0" shadow="0">
      <root>
        <mxCell id="0" />
        <mxCell id="1" parent="0" />
        <mxCell id="0yI_GeE_jHVNPEfDbKx7-1" value="" style="shape=umlActor;verticalLabelPosition=bottom;verticalAlign=top;html=1;outlineConnect=0;" vertex="1" parent="1">
          <mxGeometry x="60" y="50" width="30" height="60" as="geometry" />
        </mxCell>
        <mxCell id="0yI_GeE_jHVNPEfDbKx7-3" value="Controller" style="rounded=0;whiteSpace=wrap;html=1;" vertex="1" parent="1">
          <mxGeometry x="280" y="40" width="120" height="60" as="geometry" />
        </mxCell>
        <mxCell id="0yI_GeE_jHVNPEfDbKx7-4" value="Service" style="rounded=0;whiteSpace=wrap;html=1;" vertex="1" parent="1">
          <mxGeometry x="590" y="40" width="120" height="60" as="geometry" />
        </mxCell>
        <mxCell id="0yI_GeE_jHVNPEfDbKx7-5" value="Database" style="rounded=0;whiteSpace=wrap;html=1;" vertex="1" parent="1">
          <mxGeometry x="830" y="40" width="120" height="60" as="geometry" />
        </mxCell>
        <mxCell id="0yI_GeE_jHVNPEfDbKx7-8" value="&lt;span style=&quot;font-size: 18px;&quot;&gt;CRUD user&lt;/span&gt;" style="text;html=1;align=center;verticalAlign=middle;resizable=0;points=[];autosize=1;strokeColor=none;fillColor=none;" vertex="1" parent="1">
          <mxGeometry x="-125" y="40" width="120" height="40" as="geometry" />
        </mxCell>
        <mxCell id="0yI_GeE_jHVNPEfDbKx7-9" value="" style="endArrow=none;dashed=1;html=1;dashPattern=1 3;strokeWidth=2;rounded=0;" edge="1" parent="1" target="0yI_GeE_jHVNPEfDbKx7-1">
          <mxGeometry width="50" height="50" relative="1" as="geometry">
            <mxPoint x="75" y="732" as="sourcePoint" />
            <mxPoint x="170" y="140" as="targetPoint" />
          </mxGeometry>
        </mxCell>
        <mxCell id="0yI_GeE_jHVNPEfDbKx7-10" value="" style="endArrow=none;dashed=1;html=1;dashPattern=1 3;strokeWidth=2;rounded=0;startArrow=none;" edge="1" parent="1" source="0yI_GeE_jHVNPEfDbKx7-53" target="0yI_GeE_jHVNPEfDbKx7-3">
          <mxGeometry width="50" height="50" relative="1" as="geometry">
            <mxPoint x="340" y="740" as="sourcePoint" />
            <mxPoint x="380" y="190" as="targetPoint" />
          </mxGeometry>
        </mxCell>
        <mxCell id="0yI_GeE_jHVNPEfDbKx7-11" value="" style="endArrow=none;dashed=1;html=1;dashPattern=1 3;strokeWidth=2;rounded=0;" edge="1" parent="1" target="0yI_GeE_jHVNPEfDbKx7-5">
          <mxGeometry width="50" height="50" relative="1" as="geometry">
            <mxPoint x="889" y="750" as="sourcePoint" />
            <mxPoint x="889.4700000000003" y="100" as="targetPoint" />
          </mxGeometry>
        </mxCell>
        <mxCell id="0yI_GeE_jHVNPEfDbKx7-12" value="" style="endArrow=none;dashed=1;html=1;dashPattern=1 3;strokeWidth=2;rounded=0;" edge="1" parent="1" target="0yI_GeE_jHVNPEfDbKx7-4">
          <mxGeometry width="50" height="50" relative="1" as="geometry">
            <mxPoint x="649" y="740" as="sourcePoint" />
            <mxPoint x="649.4700000000003" y="100" as="targetPoint" />
          </mxGeometry>
        </mxCell>
        <mxCell id="0yI_GeE_jHVNPEfDbKx7-13" value="" style="endArrow=classic;html=1;rounded=0;entryX=-0.125;entryY=0.046;entryDx=0;entryDy=0;entryPerimeter=0;" edge="1" parent="1" target="0yI_GeE_jHVNPEfDbKx7-42">
          <mxGeometry width="50" height="50" relative="1" as="geometry">
            <mxPoint x="80" y="150" as="sourcePoint" />
            <mxPoint x="310" y="150" as="targetPoint" />
          </mxGeometry>
        </mxCell>
        <mxCell id="0yI_GeE_jHVNPEfDbKx7-14" value="&lt;font style=&quot;font-size: 18px;&quot;&gt;change Password&amp;nbsp;request&lt;/font&gt;" style="edgeLabel;html=1;align=center;verticalAlign=middle;resizable=0;points=[];" vertex="1" connectable="0" parent="0yI_GeE_jHVNPEfDbKx7-13">
          <mxGeometry x="-0.2028" y="2" relative="1" as="geometry">
            <mxPoint x="21" y="-17" as="offset" />
          </mxGeometry>
        </mxCell>
        <mxCell id="0yI_GeE_jHVNPEfDbKx7-15" value="" style="endArrow=classic;html=1;rounded=0;fontSize=18;entryX=-0.187;entryY=0.046;entryDx=0;entryDy=0;entryPerimeter=0;" edge="1" parent="1" target="0yI_GeE_jHVNPEfDbKx7-44">
          <mxGeometry width="50" height="50" relative="1" as="geometry">
            <mxPoint x="340" y="180" as="sourcePoint" />
            <mxPoint x="580" y="180" as="targetPoint" />
          </mxGeometry>
        </mxCell>
        <mxCell id="0yI_GeE_jHVNPEfDbKx7-16" value="gọi change user page" style="text;html=1;align=center;verticalAlign=middle;resizable=0;points=[];autosize=1;strokeColor=none;fillColor=none;fontSize=18;" vertex="1" parent="1">
          <mxGeometry x="390" y="150" width="200" height="40" as="geometry" />
        </mxCell>
        <mxCell id="0yI_GeE_jHVNPEfDbKx7-20" value="return change Password page" style="html=1;verticalAlign=bottom;endArrow=open;dashed=1;endSize=8;rounded=0;fontSize=18;exitX=0;exitY=0.75;exitDx=0;exitDy=0;" edge="1" parent="1" source="0yI_GeE_jHVNPEfDbKx7-44">
          <mxGeometry relative="1" as="geometry">
            <mxPoint x="590" y="230" as="sourcePoint" />
            <mxPoint x="350" y="230" as="targetPoint" />
          </mxGeometry>
        </mxCell>
        <mxCell id="0yI_GeE_jHVNPEfDbKx7-21" value="giao diện đổi mật khẩu" style="html=1;verticalAlign=bottom;endArrow=open;dashed=1;endSize=8;rounded=0;fontSize=18;" edge="1" parent="1">
          <mxGeometry relative="1" as="geometry">
            <mxPoint x="350" y="260" as="sourcePoint" />
            <mxPoint x="80" y="260" as="targetPoint" />
          </mxGeometry>
        </mxCell>
        <mxCell id="0yI_GeE_jHVNPEfDbKx7-42" value="" style="rounded=0;whiteSpace=wrap;html=1;fontSize=14;" vertex="1" parent="1">
          <mxGeometry x="330" y="140" width="20" height="140" as="geometry" />
        </mxCell>
        <mxCell id="0yI_GeE_jHVNPEfDbKx7-44" value="" style="rounded=0;whiteSpace=wrap;html=1;fontSize=14;" vertex="1" parent="1">
          <mxGeometry x="640" y="170" width="20" height="80" as="geometry" />
        </mxCell>
        <mxCell id="0yI_GeE_jHVNPEfDbKx7-45" value="" style="rounded=0;whiteSpace=wrap;html=1;fontSize=14;" vertex="1" parent="1">
          <mxGeometry x="880" y="380" width="20" height="220" as="geometry" />
        </mxCell>
        <mxCell id="0yI_GeE_jHVNPEfDbKx7-51" value="" style="endArrow=classic;html=1;rounded=0;entryX=-0.125;entryY=0.046;entryDx=0;entryDy=0;entryPerimeter=0;" edge="1" parent="1">
          <mxGeometry width="50" height="50" relative="1" as="geometry">
            <mxPoint x="80" y="360" as="sourcePoint" />
            <mxPoint x="327.5" y="350.00000000000006" as="targetPoint" />
          </mxGeometry>
        </mxCell>
        <mxCell id="0yI_GeE_jHVNPEfDbKx7-52" value="&lt;font style=&quot;font-size: 18px;&quot;&gt;input request&lt;/font&gt;" style="edgeLabel;html=1;align=center;verticalAlign=middle;resizable=0;points=[];" vertex="1" connectable="0" parent="0yI_GeE_jHVNPEfDbKx7-51">
          <mxGeometry x="-0.2028" y="2" relative="1" as="geometry">
            <mxPoint as="offset" />
          </mxGeometry>
        </mxCell>
        <mxCell id="0yI_GeE_jHVNPEfDbKx7-53" value="" style="rounded=0;whiteSpace=wrap;html=1;fontSize=14;" vertex="1" parent="1">
          <mxGeometry x="330" y="320" width="20" height="340" as="geometry" />
        </mxCell>
        <mxCell id="0yI_GeE_jHVNPEfDbKx7-54" value="" style="endArrow=none;dashed=1;html=1;dashPattern=1 3;strokeWidth=2;rounded=0;" edge="1" parent="1" target="0yI_GeE_jHVNPEfDbKx7-53">
          <mxGeometry width="50" height="50" relative="1" as="geometry">
            <mxPoint x="340" y="739.9999999999998" as="sourcePoint" />
            <mxPoint x="340" y="100" as="targetPoint" />
          </mxGeometry>
        </mxCell>
        <mxCell id="0yI_GeE_jHVNPEfDbKx7-56" value="" style="endArrow=classic;html=1;rounded=0;fontSize=18;entryX=-0.05;entryY=0.1;entryDx=0;entryDy=0;entryPerimeter=0;" edge="1" parent="1" target="0yI_GeE_jHVNPEfDbKx7-61">
          <mxGeometry width="50" height="50" relative="1" as="geometry">
            <mxPoint x="350" y="380" as="sourcePoint" />
            <mxPoint x="576" y="380" as="targetPoint" />
          </mxGeometry>
        </mxCell>
        <mxCell id="0yI_GeE_jHVNPEfDbKx7-57" value="gọi&amp;nbsp;change Password function" style="text;html=1;align=center;verticalAlign=middle;resizable=0;points=[];autosize=1;strokeColor=none;fillColor=none;fontSize=18;" vertex="1" parent="1">
          <mxGeometry x="360" y="350" width="260" height="40" as="geometry" />
        </mxCell>
        <mxCell id="0yI_GeE_jHVNPEfDbKx7-58" value="" style="endArrow=classic;html=1;rounded=0;fontSize=18;" edge="1" parent="1">
          <mxGeometry width="50" height="50" relative="1" as="geometry">
            <mxPoint x="654" y="400" as="sourcePoint" />
            <mxPoint x="880" y="400" as="targetPoint" />
          </mxGeometry>
        </mxCell>
        <mxCell id="0yI_GeE_jHVNPEfDbKx7-59" value="save data" style="text;html=1;align=center;verticalAlign=middle;resizable=0;points=[];autosize=1;strokeColor=none;fillColor=none;fontSize=18;" vertex="1" parent="1">
          <mxGeometry x="714" y="370" width="100" height="40" as="geometry" />
        </mxCell>
        <mxCell id="0yI_GeE_jHVNPEfDbKx7-61" value="" style="rounded=0;whiteSpace=wrap;html=1;fontSize=14;" vertex="1" parent="1">
          <mxGeometry x="640" y="350" width="20" height="270" as="geometry" />
        </mxCell>
        <mxCell id="0yI_GeE_jHVNPEfDbKx7-63" value="register&amp;nbsp;successful" style="html=1;verticalAlign=bottom;endArrow=open;dashed=1;endSize=8;rounded=0;fontSize=18;exitX=-0.221;exitY=0.604;exitDx=0;exitDy=0;exitPerimeter=0;" edge="1" parent="1" source="0yI_GeE_jHVNPEfDbKx7-61">
          <mxGeometry relative="1" as="geometry">
            <mxPoint x="590" y="510" as="sourcePoint" />
            <mxPoint x="350" y="510" as="targetPoint" />
          </mxGeometry>
        </mxCell>
        <mxCell id="0yI_GeE_jHVNPEfDbKx7-66" value="register&amp;nbsp;successful" style="html=1;verticalAlign=bottom;endArrow=open;dashed=1;endSize=8;rounded=0;fontSize=18;" edge="1" parent="1">
          <mxGeometry relative="1" as="geometry">
            <mxPoint x="330" y="530" as="sourcePoint" />
            <mxPoint x="140" y="530" as="targetPoint" />
          </mxGeometry>
        </mxCell>
        <mxCell id="0yI_GeE_jHVNPEfDbKx7-67" value="successful" style="html=1;verticalAlign=bottom;endArrow=open;dashed=1;endSize=8;rounded=0;fontSize=18;" edge="1" parent="1">
          <mxGeometry relative="1" as="geometry">
            <mxPoint x="900" y="484.29" as="sourcePoint" />
            <mxPoint x="660" y="484.29" as="targetPoint" />
          </mxGeometry>
        </mxCell>
        <mxCell id="0yI_GeE_jHVNPEfDbKx7-71" value="register unsuccessful" style="html=1;verticalAlign=bottom;endArrow=open;dashed=1;endSize=8;rounded=0;fontSize=18;" edge="1" parent="1">
          <mxGeometry relative="1" as="geometry">
            <mxPoint x="330" y="629" as="sourcePoint" />
            <mxPoint x="140" y="629" as="targetPoint" />
          </mxGeometry>
        </mxCell>
      </root>
    </mxGraphModel>
  </diagram>
</mxfile>
